<svg width="30" height="30" viewBox="0 0 30 30" fill="none" xmlns="http://www.w3.org/2000/svg">
<path d="M7.24271 2.55609V6.25828L6.49646 6.99797H11.7179V1.81641L10.9721 2.55609H7.24271Z" fill="white"/>
<path d="M20.131 6.99798C20.1207 6.94126 20.1061 6.88548 20.1001 6.82876C19.7924 6.87541 19.4781 6.84795 19.1832 6.74864C18.8883 6.64934 18.6213 6.48107 18.4046 6.25782C18.1453 5.99148 17.9667 5.65719 17.8895 5.29361C17.8123 4.93003 17.8396 4.55202 17.9682 4.20329C17.8726 4.19369 17.778 4.17676 17.6851 4.15266C17.4134 4.08487 17.1593 3.9599 16.9397 3.7861C16.6914 3.59257 16.4943 3.34098 16.366 3.05344C16.294 2.88548 16.2457 2.70831 16.2226 2.52704L16.193 2.5561H12.4632V6.25782L11.7174 6.99798H20.131ZM7.24271 7.7386V11.4399L6.49646 12.1805H11.7179L11.7174 6.99798L10.9721 7.7386H7.24271ZM12.4636 7.7386V11.4399L11.7179 12.1805H16.9397V6.99798L16.1935 7.7386H12.4636Z" fill="white"/>
<path d="M23.3934 15.0089C23.2787 14.9263 23.1579 14.8525 23.032 14.7881V8.54062H22.1606C21.9078 8.55717 21.6542 8.52356 21.4144 8.44172C21.0282 8.31344 20.6919 8.06758 20.4525 7.73859H17.685V11.4398L16.9397 12.1805H22.1606L21.4144 12.9206H17.685V14.3377C17.4391 14.363 17.1906 14.3916 16.9397 14.4234V12.1805L16.1934 12.9206H12.4636V15.2278C12.212 15.2841 11.9634 15.3411 11.7178 15.3989V12.1805L10.972 12.9206H7.24266V16.5891C6.96234 16.672 6.71109 16.7475 6.49641 16.8136V1.81641H16.1873V0.9375H5.625V29.0625H23.0316V20.2917C23.9578 18.1491 25.3312 16.4419 23.3934 15.0089ZM22.702 18.81C22.0233 20.2087 21.1336 22.042 21.5719 24.1805C19.0683 24.1045 18.0595 22.7602 16.7911 21.0703C15.5433 19.4086 14.0662 17.4413 10.9069 16.5609C13.7189 15.8573 17.1844 15.1561 19.8244 15.1561C21.6436 15.1561 22.4742 15.4884 22.8506 15.7669C23.738 16.4227 23.6147 16.9289 22.702 18.81ZM6.49641 28.1836V17.1131C6.65297 17.1216 6.79969 17.1356 6.95016 17.1483C7.85344 17.272 9.93937 17.6564 11.6489 18.7027C12.4688 19.2787 13.1137 19.9641 13.672 20.6902C13.9304 21.0948 14.2088 21.4864 14.5059 21.8634C16.0875 24.2367 17.3325 26.6053 21.2883 26.6053C20.9377 26.1778 20.708 25.6327 20.5627 25.0214C20.9405 25.0856 21.3487 25.1213 21.7983 25.1213C21.915 25.1213 22.0378 25.1161 22.1597 25.1114V28.1836H6.49641Z" fill="white"/>
</svg>
