<svg width="219" height="54" viewBox="0 0 219 54" fill="none" xmlns="http://www.w3.org/2000/svg">
<path d="M9.826 10.585C9.52 9.99567 9.095 9.55367 8.551 9.259C8.007 8.953 7.378 8.8 6.664 8.8C5.882 8.8 5.185 8.97567 4.573 9.327C3.961 9.67833 3.47933 10.177 3.128 10.823C2.788 11.469 2.618 12.217 2.618 13.067C2.618 13.917 2.788 14.6707 3.128 15.328C3.47933 15.974 3.961 16.4727 4.573 16.824C5.185 17.1753 5.882 17.351 6.664 17.351C7.718 17.351 8.57367 17.0563 9.231 16.467C9.88833 15.8777 10.2907 15.0787 10.438 14.07H6.001V12.523H12.512V14.036C12.3873 14.954 12.0587 15.7983 11.526 16.569C11.0047 17.3397 10.319 17.9573 9.469 18.422C8.63033 18.8753 7.69533 19.102 6.664 19.102C5.55333 19.102 4.539 18.847 3.621 18.337C2.703 17.8157 1.972 17.096 1.428 16.178C0.895333 15.26 0.629 14.223 0.629 13.067C0.629 11.911 0.895333 10.874 1.428 9.956C1.972 9.038 2.703 8.324 3.621 7.814C4.55033 7.29267 5.56467 7.032 6.664 7.032C7.922 7.032 9.03833 7.34367 10.013 7.967C10.999 8.579 11.713 9.45167 12.155 10.585H9.826ZM23.0084 14.087C23.0084 14.4383 22.9858 14.7557 22.9404 15.039H15.7834C15.8401 15.787 16.1178 16.3877 16.6164 16.841C17.1151 17.2943 17.7271 17.521 18.4524 17.521C19.4951 17.521 20.2318 17.0847 20.6624 16.212H22.7534C22.4701 17.0733 21.9544 17.7817 21.2064 18.337C20.4698 18.881 19.5518 19.153 18.4524 19.153C17.5571 19.153 16.7524 18.9547 16.0384 18.558C15.3358 18.15 14.7804 17.5833 14.3724 16.858C13.9758 16.1213 13.7774 15.2713 13.7774 14.308C13.7774 13.3447 13.9701 12.5003 14.3554 11.775C14.7521 11.0383 15.3018 10.4717 16.0044 10.075C16.7184 9.67833 17.5344 9.48 18.4524 9.48C19.3364 9.48 20.1241 9.67267 20.8154 10.058C21.5068 10.4433 22.0451 10.9873 22.4304 11.69C22.8158 12.3813 23.0084 13.1803 23.0084 14.087ZM20.9854 13.475C20.9741 12.761 20.7191 12.1887 20.2204 11.758C19.7218 11.3273 19.1041 11.112 18.3674 11.112C17.6988 11.112 17.1264 11.3273 16.6504 11.758C16.1744 12.1773 15.8911 12.7497 15.8004 13.475H20.9854ZM27.1766 11.214V16.399C27.1766 16.7503 27.256 17.0053 27.4146 17.164C27.5846 17.3113 27.868 17.385 28.2646 17.385H29.4546V19H27.9246C27.052 19 26.3833 18.796 25.9186 18.388C25.454 17.98 25.2216 17.317 25.2216 16.399V11.214H24.1166V9.633H25.2216V7.304H27.1766V9.633H29.4546V11.214H27.1766ZM33.5018 11.214V16.399C33.5018 16.7503 33.5812 17.0053 33.7398 17.164C33.9098 17.3113 34.1932 17.385 34.5898 17.385H35.7798V19H34.2498C33.3772 19 32.7085 18.796 32.2438 18.388C31.7792 17.98 31.5468 17.317 31.5468 16.399V11.214H30.4418V9.633H31.5468V7.304H33.5018V9.633H35.7798V11.214H33.5018ZM38.552 8.392C38.2007 8.392 37.906 8.273 37.668 8.035C37.43 7.797 37.311 7.50233 37.311 7.151C37.311 6.79967 37.43 6.505 37.668 6.267C37.906 6.029 38.2007 5.91 38.552 5.91C38.892 5.91 39.181 6.029 39.419 6.267C39.657 6.505 39.776 6.79967 39.776 7.151C39.776 7.50233 39.657 7.797 39.419 8.035C39.181 8.273 38.892 8.392 38.552 8.392ZM39.504 9.633V19H37.566V9.633H39.504ZM46.7744 9.48C47.5111 9.48 48.1684 9.633 48.7464 9.939C49.3358 10.245 49.7948 10.6983 50.1234 11.299C50.4521 11.8997 50.6164 12.625 50.6164 13.475V19H48.6954V13.764C48.6954 12.9253 48.4858 12.285 48.0664 11.843C47.6471 11.3897 47.0748 11.163 46.3494 11.163C45.6241 11.163 45.0461 11.3897 44.6154 11.843C44.1961 12.285 43.9864 12.9253 43.9864 13.764V19H42.0484V9.633H43.9864V10.704C44.3038 10.3187 44.7061 10.0183 45.1934 9.803C45.6921 9.58767 46.2191 9.48 46.7744 9.48ZM56.8625 9.48C57.5878 9.48 58.2281 9.62733 58.7835 9.922C59.3501 10.2053 59.7921 10.5623 60.1095 10.993V9.633H62.0645V19.153C62.0645 20.0143 61.8831 20.7793 61.5205 21.448C61.1578 22.128 60.6308 22.6607 59.9395 23.046C59.2595 23.4313 58.4435 23.624 57.4915 23.624C56.2221 23.624 55.1681 23.3237 54.3295 22.723C53.4908 22.1337 53.0148 21.329 52.9015 20.309H54.8225C54.9698 20.7963 55.2815 21.1873 55.7575 21.482C56.2448 21.788 56.8228 21.941 57.4915 21.941C58.2735 21.941 58.9025 21.703 59.3785 21.227C59.8658 20.751 60.1095 20.0597 60.1095 19.153V17.589C59.7808 18.031 59.3331 18.405 58.7665 18.711C58.2111 19.0057 57.5765 19.153 56.8625 19.153C56.0465 19.153 55.2985 18.949 54.6185 18.541C53.9498 18.1217 53.4171 17.5437 53.0205 16.807C52.6351 16.059 52.4425 15.2147 52.4425 14.274C52.4425 13.3333 52.6351 12.5003 53.0205 11.775C53.4171 11.0497 53.9498 10.4887 54.6185 10.092C55.2985 9.684 56.0465 9.48 56.8625 9.48ZM60.1095 14.308C60.1095 13.662 59.9735 13.101 59.7015 12.625C59.4408 12.149 59.0951 11.7863 58.6645 11.537C58.2338 11.2877 57.7691 11.163 57.2705 11.163C56.7718 11.163 56.3071 11.2877 55.8765 11.537C55.4458 11.775 55.0945 12.132 54.8225 12.608C54.5618 13.0727 54.4315 13.628 54.4315 14.274C54.4315 14.92 54.5618 15.4867 54.8225 15.974C55.0945 16.4613 55.4458 16.8353 55.8765 17.096C56.3185 17.3453 56.7831 17.47 57.2705 17.47C57.7691 17.47 58.2338 17.3453 58.6645 17.096C59.0951 16.8467 59.4408 16.484 59.7015 16.008C59.9735 15.5207 60.1095 14.954 60.1095 14.308ZM71.287 11.214V16.399C71.287 16.7503 71.3663 17.0053 71.525 17.164C71.695 17.3113 71.9783 17.385 72.375 17.385H73.565V19H72.035C71.1623 19 70.4936 18.796 70.029 18.388C69.5643 17.98 69.332 17.317 69.332 16.399V11.214H68.227V9.633H69.332V7.304H71.287V9.633H73.565V11.214H71.287ZM79.4142 19.153C78.5302 19.153 77.7312 18.9547 77.0172 18.558C76.3032 18.15 75.7422 17.5833 75.3342 16.858C74.9262 16.1213 74.7222 15.2713 74.7222 14.308C74.7222 13.356 74.9318 12.5117 75.3512 11.775C75.7705 11.0383 76.3428 10.4717 77.0682 10.075C77.7935 9.67833 78.6038 9.48 79.4992 9.48C80.3945 9.48 81.2048 9.67833 81.9302 10.075C82.6555 10.4717 83.2278 11.0383 83.6472 11.775C84.0665 12.5117 84.2762 13.356 84.2762 14.308C84.2762 15.26 84.0608 16.1043 83.6302 16.841C83.1995 17.5777 82.6102 18.15 81.8622 18.558C81.1255 18.9547 80.3095 19.153 79.4142 19.153ZM79.4142 17.47C79.9128 17.47 80.3775 17.351 80.8082 17.113C81.2502 16.875 81.6072 16.518 81.8792 16.042C82.1512 15.566 82.2872 14.988 82.2872 14.308C82.2872 13.628 82.1568 13.0557 81.8962 12.591C81.6355 12.115 81.2898 11.758 80.8592 11.52C80.4285 11.282 79.9638 11.163 79.4652 11.163C78.9665 11.163 78.5018 11.282 78.0712 11.52C77.6518 11.758 77.3175 12.115 77.0682 12.591C76.8188 13.0557 76.6942 13.628 76.6942 14.308C76.6942 15.3167 76.9492 16.0987 77.4592 16.654C77.9805 17.198 78.6322 17.47 79.4142 17.47ZM94.314 14.325L98.632 19H96.014L92.546 14.971V19H90.608V6.42H92.546V13.73L95.946 9.633H98.632L94.314 14.325ZM104.747 9.48C105.484 9.48 106.141 9.633 106.719 9.939C107.308 10.245 107.767 10.6983 108.096 11.299C108.425 11.8997 108.589 12.625 108.589 13.475V19H106.668V13.764C106.668 12.9253 106.458 12.285 106.039 11.843C105.62 11.3897 105.047 11.163 104.322 11.163C103.597 11.163 103.019 11.3897 102.588 11.843C102.169 12.285 101.959 12.9253 101.959 13.764V19H100.021V9.633H101.959V10.704C102.276 10.3187 102.679 10.0183 103.166 9.803C103.665 9.58767 104.192 9.48 104.747 9.48ZM115.124 19.153C114.24 19.153 113.441 18.9547 112.727 18.558C112.013 18.15 111.452 17.5833 111.044 16.858C110.636 16.1213 110.432 15.2713 110.432 14.308C110.432 13.356 110.642 12.5117 111.061 11.775C111.48 11.0383 112.053 10.4717 112.778 10.075C113.503 9.67833 114.314 9.48 115.209 9.48C116.104 9.48 116.915 9.67833 117.64 10.075C118.365 10.4717 118.938 11.0383 119.357 11.775C119.776 12.5117 119.986 13.356 119.986 14.308C119.986 15.26 119.771 16.1043 119.34 16.841C118.909 17.5777 118.32 18.15 117.572 18.558C116.835 18.9547 116.019 19.153 115.124 19.153ZM115.124 17.47C115.623 17.47 116.087 17.351 116.518 17.113C116.96 16.875 117.317 16.518 117.589 16.042C117.861 15.566 117.997 14.988 117.997 14.308C117.997 13.628 117.867 13.0557 117.606 12.591C117.345 12.115 117 11.758 116.569 11.52C116.138 11.282 115.674 11.163 115.175 11.163C114.676 11.163 114.212 11.282 113.781 11.52C113.362 11.758 113.027 12.115 112.778 12.591C112.529 13.0557 112.404 13.628 112.404 14.308C112.404 15.3167 112.659 16.0987 113.169 16.654C113.69 17.198 114.342 17.47 115.124 17.47ZM134.482 9.633L131.575 19H129.535L127.648 12.081L125.761 19H123.721L120.797 9.633H122.769L124.724 17.164L126.713 9.633H128.736L130.64 17.13L132.578 9.633H134.482ZM15.822 33.31V46H12.294V38.998L9.9 46H6.948L4.536 38.944V46H1.008V33.31H5.274L8.46 41.554L11.574 33.31H15.822ZM22.5283 46.126C21.5203 46.126 20.6143 45.916 19.8103 45.496C19.0183 45.076 18.3943 44.476 17.9383 43.696C17.4823 42.916 17.2543 41.998 17.2543 40.942C17.2543 39.898 17.4823 38.986 17.9383 38.206C18.4063 37.426 19.0363 36.826 19.8283 36.406C20.6323 35.986 21.5383 35.776 22.5463 35.776C23.5543 35.776 24.4543 35.986 25.2463 36.406C26.0503 36.826 26.6803 37.426 27.1363 38.206C27.6043 38.986 27.8383 39.898 27.8383 40.942C27.8383 41.986 27.6043 42.904 27.1363 43.696C26.6803 44.476 26.0503 45.076 25.2463 45.496C24.4423 45.916 23.5363 46.126 22.5283 46.126ZM22.5283 43.066C23.0203 43.066 23.4283 42.886 23.7523 42.526C24.0883 42.154 24.2563 41.626 24.2563 40.942C24.2563 40.258 24.0883 39.736 23.7523 39.376C23.4283 39.016 23.0263 38.836 22.5463 38.836C22.0663 38.836 21.6643 39.016 21.3403 39.376C21.0163 39.736 20.8543 40.258 20.8543 40.942C20.8543 41.638 21.0103 42.166 21.3223 42.526C21.6343 42.886 22.0363 43.066 22.5283 43.066ZM35.8796 35.812C37.0436 35.812 37.9676 36.202 38.6516 36.982C39.3356 37.75 39.6776 38.794 39.6776 40.114V46H36.1496V40.582C36.1496 40.006 35.9996 39.556 35.6996 39.232C35.3996 38.896 34.9976 38.728 34.4936 38.728C33.9656 38.728 33.5516 38.896 33.2516 39.232C32.9516 39.556 32.8016 40.006 32.8016 40.582V46H29.2736V35.902H32.8016V37.342C33.1136 36.886 33.5336 36.52 34.0616 36.244C34.5896 35.956 35.1956 35.812 35.8796 35.812ZM41.0375 40.942C41.0375 39.898 41.2235 38.986 41.5955 38.206C41.9795 37.426 42.4955 36.826 43.1435 36.406C43.8035 35.986 44.5355 35.776 45.3395 35.776C46.0355 35.776 46.6355 35.914 47.1395 36.19C47.6435 36.466 48.0335 36.838 48.3095 37.306V35.902H51.8375V46H48.3095V44.596C48.0335 45.064 47.6375 45.436 47.1215 45.712C46.6175 45.988 46.0235 46.126 45.3395 46.126C44.5355 46.126 43.8035 45.916 43.1435 45.496C42.4955 45.076 41.9795 44.476 41.5955 43.696C41.2235 42.904 41.0375 41.986 41.0375 40.942ZM48.3095 40.942C48.3095 40.294 48.1295 39.784 47.7695 39.412C47.4215 39.04 46.9895 38.854 46.4735 38.854C45.9455 38.854 45.5075 39.04 45.1595 39.412C44.8115 39.772 44.6375 40.282 44.6375 40.942C44.6375 41.59 44.8115 42.106 45.1595 42.49C45.5075 42.862 45.9455 43.048 46.4735 43.048C46.9895 43.048 47.4215 42.862 47.7695 42.49C48.1295 42.118 48.3095 41.602 48.3095 40.942ZM57.3758 32.68V46H53.8478V32.68H57.3758ZM61.167 34.966C60.543 34.966 60.039 34.798 59.655 34.462C59.283 34.114 59.097 33.682 59.097 33.166C59.097 32.638 59.283 32.2 59.655 31.852C60.039 31.504 60.543 31.33 61.167 31.33C61.779 31.33 62.271 31.504 62.643 31.852C63.027 32.2 63.219 32.638 63.219 33.166C63.219 33.682 63.027 34.114 62.643 34.462C62.271 34.798 61.779 34.966 61.167 34.966ZM62.913 35.902V46H59.385V35.902H62.913ZM69.2241 46.126C68.3121 46.126 67.4961 45.976 66.7761 45.676C66.0681 45.364 65.5041 44.944 65.0841 44.416C64.6761 43.876 64.4481 43.27 64.4001 42.598H67.8201C67.8681 42.922 68.0181 43.174 68.2701 43.354C68.5221 43.534 68.8341 43.624 69.2061 43.624C69.4941 43.624 69.7221 43.564 69.8901 43.444C70.0581 43.324 70.1421 43.168 70.1421 42.976C70.1421 42.724 70.0041 42.538 69.7281 42.418C69.4521 42.298 68.9961 42.166 68.3601 42.022C67.6401 41.878 67.0401 41.716 66.5601 41.536C66.0801 41.356 65.6601 41.062 65.3001 40.654C64.9521 40.246 64.7781 39.694 64.7781 38.998C64.7781 38.398 64.9401 37.858 65.2641 37.378C65.5881 36.886 66.0621 36.496 66.6861 36.208C67.3221 35.92 68.0841 35.776 68.9721 35.776C70.2921 35.776 71.3301 36.1 72.0861 36.748C72.8421 37.396 73.2801 38.248 73.4001 39.304H70.2141C70.1541 38.98 70.0101 38.734 69.7821 38.566C69.5661 38.386 69.2721 38.296 68.9001 38.296C68.6121 38.296 68.3901 38.35 68.2341 38.458C68.0901 38.566 68.0181 38.716 68.0181 38.908C68.0181 39.148 68.1561 39.334 68.4321 39.466C68.7081 39.586 69.1521 39.712 69.7641 39.844C70.4961 40 71.1021 40.174 71.5821 40.366C72.0741 40.558 72.5001 40.87 72.8601 41.302C73.2321 41.722 73.4181 42.298 73.4181 43.03C73.4181 43.618 73.2441 44.146 72.8961 44.614C72.5601 45.082 72.0741 45.454 71.4381 45.73C70.8141 45.994 70.0761 46.126 69.2241 46.126ZM74.5765 40.942C74.5765 39.898 74.7625 38.986 75.1345 38.206C75.5185 37.426 76.0345 36.826 76.6825 36.406C77.3425 35.986 78.0745 35.776 78.8785 35.776C79.5745 35.776 80.1745 35.914 80.6785 36.19C81.1825 36.466 81.5725 36.838 81.8485 37.306V35.902H85.3765V46H81.8485V44.596C81.5725 45.064 81.1765 45.436 80.6605 45.712C80.1565 45.988 79.5625 46.126 78.8785 46.126C78.0745 46.126 77.3425 45.916 76.6825 45.496C76.0345 45.076 75.5185 44.476 75.1345 43.696C74.7625 42.904 74.5765 41.986 74.5765 40.942ZM81.8485 40.942C81.8485 40.294 81.6685 39.784 81.3085 39.412C80.9605 39.04 80.5285 38.854 80.0125 38.854C79.4845 38.854 79.0465 39.04 78.6985 39.412C78.3505 39.772 78.1765 40.282 78.1765 40.942C78.1765 41.59 78.3505 42.106 78.6985 42.49C79.0465 42.862 79.4845 43.048 80.0125 43.048C80.5285 43.048 80.9605 42.862 81.3085 42.49C81.6685 42.118 81.8485 41.602 81.8485 40.942ZM94.3602 43.3H98.3022V46H90.8322V33.31H94.3602V43.3ZM101.456 34.966C100.832 34.966 100.328 34.798 99.944 34.462C99.572 34.114 99.386 33.682 99.386 33.166C99.386 32.638 99.572 32.2 99.944 31.852C100.328 31.504 100.832 31.33 101.456 31.33C102.068 31.33 102.56 31.504 102.932 31.852C103.316 32.2 103.508 32.638 103.508 33.166C103.508 33.682 103.316 34.114 102.932 34.462C102.56 34.798 102.068 34.966 101.456 34.966ZM103.202 35.902V46H99.674V35.902H103.202ZM104.635 40.942C104.635 39.898 104.821 38.986 105.193 38.206C105.577 37.426 106.093 36.826 106.741 36.406C107.401 35.986 108.133 35.776 108.937 35.776C109.633 35.776 110.233 35.914 110.737 36.19C111.241 36.466 111.631 36.838 111.907 37.306V35.902H115.435V46H111.907V44.596C111.631 45.064 111.235 45.436 110.719 45.712C110.215 45.988 109.621 46.126 108.937 46.126C108.133 46.126 107.401 45.916 106.741 45.496C106.093 45.076 105.577 44.476 105.193 43.696C104.821 42.904 104.635 41.986 104.635 40.942ZM111.907 40.942C111.907 40.294 111.727 39.784 111.367 39.412C111.019 39.04 110.587 38.854 110.071 38.854C109.543 38.854 109.105 39.04 108.757 39.412C108.409 39.772 108.235 40.282 108.235 40.942C108.235 41.59 108.409 42.106 108.757 42.49C109.105 42.862 109.543 43.048 110.071 43.048C110.587 43.048 111.019 42.862 111.367 42.49C111.727 42.118 111.907 41.602 111.907 40.942ZM120.974 37.306C121.25 36.826 121.64 36.454 122.144 36.19C122.648 35.914 123.242 35.776 123.926 35.776C124.73 35.776 125.456 35.986 126.104 36.406C126.764 36.826 127.28 37.426 127.652 38.206C128.036 38.986 128.228 39.898 128.228 40.942C128.228 41.986 128.036 42.904 127.652 43.696C127.28 44.476 126.764 45.076 126.104 45.496C125.456 45.916 124.73 46.126 123.926 46.126C123.242 46.126 122.648 45.994 122.144 45.73C121.64 45.454 121.25 45.076 120.974 44.596V46H117.446V32.68H120.974V37.306ZM124.646 40.942C124.646 40.282 124.466 39.772 124.106 39.412C123.758 39.04 123.326 38.854 122.81 38.854C122.294 38.854 121.856 39.04 121.496 39.412C121.148 39.784 120.974 40.294 120.974 40.942C120.974 41.602 121.148 42.118 121.496 42.49C121.856 42.862 122.294 43.048 122.81 43.048C123.326 43.048 123.758 42.862 124.106 42.49C124.466 42.106 124.646 41.59 124.646 40.942ZM140.012 35.902V46H136.466V44.56C136.166 45.016 135.752 45.388 135.224 45.676C134.696 45.952 134.09 46.09 133.406 46.09C132.23 46.09 131.3 45.706 130.616 44.938C129.944 44.158 129.608 43.102 129.608 41.77V35.902H133.118V41.32C133.118 41.896 133.268 42.352 133.568 42.688C133.88 43.012 134.288 43.174 134.792 43.174C135.308 43.174 135.716 43.012 136.016 42.688C136.316 42.352 136.466 41.896 136.466 41.32V35.902H140.012ZM148.626 35.812C149.79 35.812 150.714 36.202 151.398 36.982C152.082 37.75 152.424 38.794 152.424 40.114V46H148.896V40.582C148.896 40.006 148.746 39.556 148.446 39.232C148.146 38.896 147.744 38.728 147.24 38.728C146.712 38.728 146.298 38.896 145.998 39.232C145.698 39.556 145.548 40.006 145.548 40.582V46H142.02V35.902H145.548V37.342C145.86 36.886 146.28 36.52 146.808 36.244C147.336 35.956 147.942 35.812 148.626 35.812ZM165.232 35.902L158.824 50.806H154.99L157.402 45.568L153.262 35.902H157.186L159.31 41.626L161.362 35.902H165.232ZM165.578 40.942C165.578 39.898 165.764 38.986 166.136 38.206C166.52 37.426 167.036 36.826 167.684 36.406C168.344 35.986 169.076 35.776 169.88 35.776C170.576 35.776 171.176 35.914 171.68 36.19C172.184 36.466 172.574 36.838 172.85 37.306V35.902H176.378V46H172.85V44.596C172.574 45.064 172.178 45.436 171.662 45.712C171.158 45.988 170.564 46.126 169.88 46.126C169.076 46.126 168.344 45.916 167.684 45.496C167.036 45.076 166.52 44.476 166.136 43.696C165.764 42.904 165.578 41.986 165.578 40.942ZM172.85 40.942C172.85 40.294 172.67 39.784 172.31 39.412C171.962 39.04 171.53 38.854 171.014 38.854C170.486 38.854 170.048 39.04 169.7 39.412C169.352 39.772 169.178 40.282 169.178 40.942C169.178 41.59 169.352 42.106 169.7 42.49C170.048 42.862 170.486 43.048 171.014 43.048C171.53 43.048 171.962 42.862 172.31 42.49C172.67 42.118 172.85 41.602 172.85 40.942Z" fill="black"/>
<path d="M206 45.6667H215.75M210.333 28.3333C210.764 27.9024 211.349 27.6602 211.958 27.6602C212.568 27.6602 213.152 27.9024 213.583 28.3333C214.014 28.7643 214.256 29.3488 214.256 29.9583C214.256 30.5678 214.014 31.1524 213.583 31.5833L200.583 44.5833L196.25 45.6667L197.333 41.3333L210.333 28.3333Z" stroke="black" stroke-width="2" stroke-linecap="round" stroke-linejoin="round"/>
</svg>
