<svg width="16" height="16" viewBox="0 0 16 16" fill="none" xmlns="http://www.w3.org/2000/svg">
<path d="M14.9669 11.5669C14.8037 11.3931 14.2278 10.8794 13.169 10.1997C12.1025 9.51406 11.3159 9.08656 11.0903 8.98687C11.0704 8.97805 11.0485 8.97482 11.0269 8.97751C11.0053 8.98021 10.9849 8.98874 10.9678 9.00218C10.6044 9.28562 9.99248 9.80625 9.95966 9.83437C9.74779 10.0159 9.74779 10.0159 9.57435 9.95937C9.26935 9.85937 8.32185 9.35625 7.49623 8.52875C6.6706 7.70125 6.14154 6.73031 6.04154 6.42562C5.98435 6.25187 5.98435 6.25187 6.16654 6.04C6.19466 6.00718 6.7156 5.39531 6.99904 5.03218C7.01248 5.01508 7.02101 4.99464 7.02371 4.97306C7.02641 4.95148 7.02317 4.92957 7.01435 4.90968C6.91466 4.68375 6.48716 3.8975 5.80154 2.83093C5.12091 1.7725 4.60779 1.19656 4.43404 1.03343C4.41809 1.01839 4.39839 1.00792 4.37699 1.00314C4.3556 0.998352 4.33331 0.999426 4.31248 1.00625C3.70513 1.21497 3.11913 1.48129 2.56248 1.80156C2.02511 2.11394 1.51636 2.47315 1.04216 2.875C1.02561 2.88907 1.0132 2.90738 1.00626 2.92797C0.999327 2.94856 0.998126 2.97065 1.00279 2.99187C1.0681 3.29625 1.38029 4.56687 2.34904 6.32687C3.33748 8.12312 4.02248 9.04343 5.47404 10.49C6.9256 11.9366 7.87498 12.6628 9.6731 13.6512C11.4331 14.62 12.7044 14.9325 13.0081 14.9972C13.0294 15.0018 13.0515 15.0006 13.0721 14.9937C13.0928 14.9867 13.1111 14.9743 13.1253 14.9578C13.5271 14.4836 13.8862 13.9749 14.1984 13.4375C14.5186 12.8808 14.7849 12.2948 14.9937 11.6875C15.0004 11.6668 15.0014 11.6447 14.9967 11.6235C14.992 11.6023 14.9817 11.5828 14.9669 11.5669Z" fill="#0D99FF"/>
</svg>
