<svg width="100" height="100" viewBox="0 0 100 100" fill="none" xmlns="http://www.w3.org/2000/svg">
<path d="M37.5 37.5L62.5 62.5M62.5 37.5L37.5 62.5M50 87.5C45.0754 87.5 40.1991 86.53 35.6494 84.6455C31.0997 82.7609 26.9657 79.9987 23.4835 76.5165C20.0013 73.0343 17.2391 68.9003 15.3545 64.3506C13.47 59.8009 12.5 54.9246 12.5 50C12.5 45.0754 13.47 40.1991 15.3545 35.6494C17.2391 31.0997 20.0013 26.9657 23.4835 23.4835C26.9657 20.0013 31.0997 17.2391 35.6494 15.3545C40.1991 13.47 45.0754 12.5 50 12.5C59.9456 12.5 69.4839 16.4509 76.5165 23.4835C83.5491 30.5161 87.5 40.0544 87.5 50C87.5 59.9456 83.5491 69.4839 76.5165 76.5165C69.4839 83.5491 59.9456 87.5 50 87.5Z" stroke="#161616" stroke-linecap="round"/>
</svg>
