<svg width="80" height="80" viewBox="0 0 80 80" fill="none" xmlns="http://www.w3.org/2000/svg">
<path d="M75.2933 15.3034C75.9898 14.6069 76.5422 13.7801 76.9191 12.8702C77.296 11.9602 77.49 10.985 77.49 10C77.49 9.01513 77.296 8.03985 76.9191 7.1299C76.5422 6.21996 75.9898 5.39316 75.2933 4.69671C74.5969 4.00027 73.7701 3.44782 72.8601 3.07091C71.9502 2.69399 70.9749 2.5 69.99 2.5C69.0051 2.5 68.0298 2.69399 67.1199 3.07091C66.2099 3.44782 65.3831 4.00027 64.6867 4.69671L27.1333 42.25L37.74 52.8567L75.2933 15.3034Z" stroke="black" stroke-width="5" stroke-linecap="round" stroke-linejoin="round"/>
<path d="M27.1333 42.25L22.49 57.5L37.74 52.8567M60.9367 8.44671L71.5433 19.0534M12.49 62.5H10C8.01088 62.5 6.10322 63.2902 4.6967 64.6967C3.29018 66.1033 2.5 68.0109 2.5 70C2.5 71.9892 3.29018 73.8968 4.6967 75.3033C6.10322 76.7099 8.01088 77.5 10 77.5H62.5" stroke="black" stroke-width="5" stroke-linecap="round" stroke-linejoin="round"/>
</svg>
